<svg xmlns="http://www.w3.org/2000/svg" xmlns:xlink="http://www.w3.org/1999/xlink" preserveAspectRatio="xMidYMid" width="90.687" height="14.31" viewBox="0 0 90.687 14.31">
  <defs>
    <style>
      .cls-1 {
        fill: #fff;
        fill-rule: evenodd;
      }
    </style>
  </defs>
  <path d="M89.122,13.671 C88.321,14.211 86.880,14.311 84.459,14.311 C82.037,14.311 80.596,14.211 79.796,13.671 C78.515,12.810 78.215,10.689 78.215,8.627 L78.215,5.766 C78.215,4.745 78.255,2.203 79.696,0.983 C80.856,-0.018 82.858,-0.018 84.459,-0.018 C86.060,-0.018 88.061,-0.018 89.222,0.983 C90.663,2.203 90.703,4.745 90.703,5.766 L90.703,8.627 C90.703,10.689 90.402,12.810 89.122,13.671 ZM86.180,5.645 C86.180,5.105 86.160,4.445 85.779,4.024 C85.399,3.644 84.839,3.584 84.459,3.584 C84.078,3.584 83.518,3.644 83.138,4.024 C82.758,4.445 82.738,5.105 82.738,5.645 L82.738,8.327 C82.738,9.468 82.838,9.968 83.078,10.268 C83.418,10.669 83.998,10.709 84.459,10.709 C84.919,10.709 85.499,10.669 85.839,10.268 C86.080,9.968 86.180,9.468 86.180,8.327 L86.180,5.645 ZM73.079,5.485 C73.819,5.485 74.840,5.525 75.620,6.166 C76.641,7.026 76.681,8.607 76.681,9.448 C76.681,10.088 76.641,11.709 76.101,12.690 C75.600,13.591 74.640,14.151 72.979,14.151 L67.715,14.151 C66.535,14.151 65.774,13.731 65.354,13.350 C64.293,12.510 64.233,11.249 64.233,10.228 L64.233,3.844 C64.233,3.044 64.313,1.823 65.434,0.963 C66.375,0.242 67.455,0.142 68.256,0.142 L75.961,0.142 L75.961,3.624 L70.097,3.624 C69.276,3.624 69.076,3.764 68.996,3.824 C68.756,4.044 68.756,4.405 68.756,4.545 L68.756,5.485 L73.079,5.485 ZM68.756,9.668 C68.756,9.988 68.776,10.328 69.096,10.549 C69.276,10.649 69.657,10.669 69.797,10.669 L71.038,10.669 C71.338,10.669 71.578,10.609 71.738,10.469 C71.938,10.308 72.038,10.048 72.038,9.708 C72.038,9.408 71.978,9.028 71.758,8.807 C71.498,8.547 71.078,8.567 70.737,8.567 L68.756,8.567 L68.756,9.668 ZM61.979,7.527 C62.820,8.207 62.840,9.368 62.840,10.128 C62.840,11.409 62.740,12.390 61.779,13.270 C60.919,14.051 60.078,14.151 59.137,14.151 L50.252,14.151 L50.252,10.669 L55.795,10.669 C57.036,10.669 57.436,10.669 57.697,10.509 C58.157,10.288 58.197,9.988 58.197,9.608 C58.197,9.228 58.157,8.888 57.697,8.667 C57.556,8.607 57.396,8.567 57.216,8.567 L56.656,8.567 L50.592,8.567 L50.592,5.485 L56.416,5.485 C56.816,5.485 57.296,5.505 57.617,5.185 C57.837,4.965 57.877,4.665 57.877,4.445 C57.877,4.185 57.857,3.924 57.596,3.704 C57.296,3.444 56.856,3.464 56.456,3.464 L50.412,3.464 L50.412,0.142 L58.997,0.142 C59.878,0.142 60.959,0.182 61.779,1.263 C62.339,2.003 62.440,2.944 62.440,3.744 C62.440,4.485 62.380,5.405 61.799,6.066 C61.419,6.486 60.839,6.786 60.178,6.866 L60.178,6.926 C60.758,6.926 61.499,7.126 61.979,7.527 ZM33.845,7.206 L43.691,7.206 L43.691,10.368 L33.845,10.368 L33.845,7.206 ZM25.658,6.106 C26.278,6.266 27.099,6.586 27.599,7.086 C28.479,7.967 28.560,9.328 28.560,10.288 C28.560,11.109 28.520,12.210 27.879,13.070 C27.079,14.131 26.018,14.151 25.057,14.151 L15.451,14.151 L15.451,10.669 L23.216,10.669 C23.877,10.669 23.997,10.449 23.997,10.228 C23.997,9.768 23.556,9.668 23.096,9.528 L17.673,8.007 C16.852,7.787 16.372,7.327 16.072,6.946 C15.411,6.066 15.311,4.865 15.311,3.824 C15.311,2.944 15.371,1.843 16.192,1.023 C16.652,0.562 17.393,0.142 18.593,0.142 L27.839,0.142 L27.839,3.624 L20.715,3.624 C20.174,3.624 20.054,3.644 19.974,3.704 C19.834,3.784 19.754,3.904 19.754,4.085 C19.754,4.545 20.394,4.705 20.935,4.845 L25.658,6.106 ZM9.610,8.587 L4.527,8.587 L4.527,14.151 L0.004,14.151 L0.004,0.142 L4.527,0.142 L4.527,5.105 L9.610,5.105 L9.610,0.142 L14.133,0.142 L14.133,14.151 L9.610,14.151 L9.610,8.587 Z" class="cls-1"/>
</svg>
