<svg xmlns="http://www.w3.org/2000/svg" xmlns:xlink="http://www.w3.org/1999/xlink" preserveAspectRatio="xMidYMid" width="88.781" height="14.313" viewBox="0 0 88.781 14.313">
  <defs>
    <style>
      .cls-1 {
        fill: #fff;
        fill-rule: evenodd;
      }
    </style>
  </defs>
  <path d="M87.196,13.676 C86.395,14.216 84.954,14.316 82.533,14.316 C80.111,14.316 78.670,14.216 77.870,13.676 C76.589,12.815 76.289,10.694 76.289,8.632 L76.289,5.771 C76.289,4.750 76.329,2.208 77.770,0.988 C78.930,-0.013 80.932,-0.013 82.533,-0.013 C84.134,-0.013 86.135,-0.013 87.296,0.988 C88.737,2.208 88.777,4.750 88.777,5.771 L88.777,8.632 C88.777,10.694 88.476,12.815 87.196,13.676 ZM84.254,5.650 C84.254,5.110 84.234,4.450 83.854,4.029 C83.473,3.649 82.913,3.589 82.533,3.589 C82.152,3.589 81.592,3.649 81.212,4.029 C80.832,4.450 80.812,5.110 80.812,5.650 L80.812,8.332 C80.812,9.473 80.912,9.973 81.152,10.273 C81.492,10.674 82.072,10.714 82.533,10.714 C82.993,10.714 83.573,10.674 83.914,10.273 C84.154,9.973 84.254,9.473 84.254,8.332 L84.254,5.650 ZM68.996,14.156 L63.993,14.156 L70.697,4.130 C70.837,3.909 70.897,3.829 70.897,3.749 C70.897,3.669 70.777,3.549 70.397,3.549 L63.433,3.549 L63.433,0.147 L74.059,0.147 C75.741,0.147 75.901,1.268 75.901,2.088 C75.901,2.869 75.781,3.469 75.320,4.170 L68.996,14.156 ZM56.236,10.333 C56.156,10.393 56.036,10.434 56.036,10.534 C56.036,10.594 56.056,10.614 56.076,10.614 L56.176,10.614 L62.339,10.614 L62.339,14.156 L52.233,14.156 C50.732,14.156 50.252,12.855 50.252,11.574 C50.252,11.014 50.312,9.473 51.473,8.853 L57.376,5.731 C57.997,5.410 58.077,4.870 58.077,4.530 C58.077,4.310 58.057,4.029 57.837,3.809 C57.516,3.489 56.996,3.529 56.656,3.529 L51.072,3.529 L51.072,0.147 L59.498,0.147 C60.278,0.147 61.259,0.447 61.819,1.068 C62.520,1.808 62.600,2.969 62.600,3.949 C62.600,6.711 61.799,7.592 60.478,8.232 L56.236,10.333 ZM33.845,7.211 L43.691,7.211 L43.691,10.373 L33.845,10.373 L33.845,7.211 ZM25.658,6.111 C26.278,6.271 27.099,6.591 27.599,7.091 C28.479,7.972 28.560,9.333 28.560,10.293 C28.560,11.114 28.520,12.215 27.879,13.075 C27.079,14.136 26.018,14.156 25.057,14.156 L15.451,14.156 L15.451,10.674 L23.216,10.674 C23.877,10.674 23.997,10.454 23.997,10.233 C23.997,9.773 23.556,9.673 23.096,9.533 L17.673,8.012 C16.852,7.792 16.372,7.332 16.072,6.951 C15.411,6.071 15.311,4.870 15.311,3.829 C15.311,2.949 15.371,1.848 16.192,1.028 C16.652,0.567 17.393,0.147 18.593,0.147 L27.839,0.147 L27.839,3.629 L20.715,3.629 C20.174,3.629 20.054,3.649 19.974,3.709 C19.834,3.789 19.754,3.909 19.754,4.090 C19.754,4.550 20.394,4.710 20.935,4.850 L25.658,6.111 ZM9.610,8.592 L4.527,8.592 L4.527,14.156 L0.004,14.156 L0.004,0.147 L4.527,0.147 L4.527,5.110 L9.610,5.110 L9.610,0.147 L14.133,0.147 L14.133,14.156 L9.610,14.156 L9.610,8.592 Z" class="cls-1"/>
</svg>
