<svg xmlns="http://www.w3.org/2000/svg" xmlns:xlink="http://www.w3.org/1999/xlink" preserveAspectRatio="xMidYMid" width="92.625" height="14.31" viewBox="0 0 92.625 14.31">
  <defs>
    <style>
      .cls-1 {
        fill: #fff;
        fill-rule: evenodd;
      }
    </style>
  </defs>
  <path d="M91.047,13.671 C90.247,14.211 88.806,14.311 86.385,14.311 C83.963,14.311 82.522,14.211 81.722,13.671 C80.441,12.810 80.141,10.689 80.141,8.627 L80.141,5.766 C80.141,4.745 80.181,2.203 81.622,0.983 C82.782,-0.018 84.784,-0.018 86.385,-0.018 C87.986,-0.018 89.987,-0.018 91.148,0.983 C92.588,2.203 92.628,4.745 92.628,5.766 L92.628,8.627 C92.628,10.689 92.328,12.810 91.047,13.671 ZM88.106,5.645 C88.106,5.105 88.086,4.445 87.705,4.024 C87.325,3.644 86.765,3.584 86.385,3.584 C86.004,3.584 85.444,3.644 85.064,4.024 C84.683,4.445 84.663,5.105 84.663,5.645 L84.663,8.327 C84.663,9.468 84.764,9.968 85.004,10.268 C85.344,10.669 85.924,10.709 86.385,10.709 C86.845,10.709 87.425,10.669 87.765,10.268 C88.006,9.968 88.106,9.468 88.106,8.327 L88.106,5.645 ZM72.143,10.328 C72.063,10.388 71.943,10.429 71.943,10.529 C71.943,10.589 71.963,10.609 71.983,10.609 L72.083,10.609 L78.247,10.609 L78.247,14.151 L68.140,14.151 C66.639,14.151 66.159,12.850 66.159,11.569 C66.159,11.009 66.219,9.468 67.380,8.848 L73.284,5.726 C73.904,5.405 73.984,4.865 73.984,4.525 C73.984,4.305 73.964,4.024 73.744,3.804 C73.424,3.484 72.903,3.524 72.563,3.524 L66.980,3.524 L66.980,0.142 L75.405,0.142 C76.186,0.142 77.166,0.442 77.726,1.063 C78.427,1.803 78.507,2.964 78.507,3.944 C78.507,6.706 77.706,7.587 76.386,8.227 L72.143,10.328 ZM62.560,14.151 L58.037,14.151 L58.037,12.250 L51.753,12.250 C51.293,12.250 50.772,12.210 50.352,11.589 C50.312,11.549 49.852,10.889 49.852,9.428 C49.852,7.787 50.352,7.146 50.932,6.626 L57.316,0.882 C57.797,0.422 58.557,-0.018 60.058,-0.018 C60.758,-0.018 61.559,0.082 62.099,0.622 C62.640,1.163 62.600,1.663 62.600,2.243 L62.600,8.567 L64.641,8.567 L64.641,12.250 L62.560,12.250 L62.560,14.151 ZM58.037,5.065 C58.037,5.005 58.017,4.985 57.957,4.985 C57.857,4.985 57.797,5.105 57.697,5.185 L54.314,8.187 C54.254,8.247 54.174,8.327 54.174,8.387 C54.174,8.467 54.214,8.567 54.435,8.567 L58.037,8.567 L58.037,5.065 ZM33.845,7.206 L43.691,7.206 L43.691,10.368 L33.845,10.368 L33.845,7.206 ZM25.658,6.106 C26.278,6.266 27.099,6.586 27.599,7.086 C28.479,7.967 28.560,9.328 28.560,10.288 C28.560,11.109 28.520,12.210 27.879,13.070 C27.079,14.131 26.018,14.151 25.057,14.151 L15.451,14.151 L15.451,10.669 L23.216,10.669 C23.877,10.669 23.997,10.449 23.997,10.228 C23.997,9.768 23.556,9.668 23.096,9.528 L17.673,8.007 C16.852,7.787 16.372,7.327 16.072,6.946 C15.411,6.066 15.311,4.865 15.311,3.824 C15.311,2.944 15.371,1.843 16.192,1.023 C16.652,0.562 17.393,0.142 18.593,0.142 L27.839,0.142 L27.839,3.624 L20.715,3.624 C20.174,3.624 20.054,3.644 19.974,3.704 C19.834,3.784 19.754,3.904 19.754,4.085 C19.754,4.545 20.394,4.705 20.935,4.845 L25.658,6.106 ZM9.610,8.587 L4.527,8.587 L4.527,14.151 L0.004,14.151 L0.004,0.142 L4.527,0.142 L4.527,5.105 L9.610,5.105 L9.610,0.142 L14.133,0.142 L14.133,14.151 L9.610,14.151 L9.610,8.587 Z" class="cls-1"/>
</svg>
