<svg xmlns="http://www.w3.org/2000/svg" xmlns:xlink="http://www.w3.org/1999/xlink" preserveAspectRatio="xMidYMid" width="9" height="16" viewBox="0 0 9 16">
  <defs>
    <style>
      .cls-1 {
        fill: #fff;
        fill-rule: evenodd;
      }
    </style>
  </defs>
  <path d="M8.000,13.000 L8.000,2.000 L1.000,2.000 L1.000,13.000 L8.000,13.000 ZM4.499,15.001 C4.634,15.001 4.750,14.951 4.849,14.853 C4.947,14.754 4.996,14.638 4.996,14.503 C4.996,14.368 4.947,14.251 4.849,14.152 C4.751,14.054 4.634,14.005 4.499,14.005 C4.365,14.005 4.248,14.054 4.150,14.152 C4.052,14.251 4.003,14.368 4.003,14.503 C4.003,14.638 4.052,14.754 4.150,14.853 C4.249,14.951 4.365,15.001 4.499,15.001 ZM7.277,-0.002 C7.754,-0.002 8.160,0.180 8.496,0.543 C8.831,0.906 8.999,1.338 8.999,1.837 L8.999,14.162 C8.999,14.661 8.831,15.092 8.496,15.456 C8.160,15.819 7.754,16.000 7.277,16.000 L1.723,16.000 C1.246,16.000 0.840,15.819 0.504,15.456 C0.169,15.092 0.001,14.661 0.001,14.162 L0.001,1.837 C0.001,1.338 0.169,0.906 0.504,0.543 C0.840,0.180 1.246,-0.002 1.723,-0.002 L7.277,-0.002 Z" class="cls-1"/>
</svg>
