<svg xmlns="http://www.w3.org/2000/svg" xmlns:xlink="http://www.w3.org/1999/xlink" preserveAspectRatio="xMidYMid" width="12" height="12" viewBox="0 0 12 12">
  <defs>
    <style>
      .cls-1 {
        fill: #fbfbfb;
        fill-rule: evenodd;
      }
    </style>
  </defs>
  <path d="M11.560,0.815 C12.040,1.294 12.120,2.741 11.866,2.752 C11.612,2.762 8.794,4.055 8.540,4.066 C8.286,4.077 7.420,3.214 7.166,2.962 C6.915,2.712 4.716,4.651 4.674,4.687 C4.637,4.729 2.692,6.920 2.943,7.170 C3.196,7.423 4.062,8.286 4.051,8.539 C4.040,8.792 2.743,11.601 2.732,11.854 C2.721,12.107 1.269,12.027 0.788,11.549 C0.377,11.139 -1.114,9.019 1.549,5.333 C1.782,4.929 2.318,4.288 3.292,3.317 C3.292,3.317 3.293,3.316 3.293,3.315 C3.294,3.315 3.295,3.314 3.295,3.313 C3.296,3.312 3.297,3.312 3.298,3.311 C3.298,3.311 3.299,3.310 3.300,3.309 C4.274,2.339 4.917,1.806 5.322,1.573 C9.021,-1.080 11.149,0.406 11.560,0.815 Z" class="cls-1"/>
</svg>
